<svg t="1627312501293" class="icon" viewBox="0 0 1024 1024" version="1.1" xmlns="http://www.w3.org/2000/svg" p-id="2403" width="600" height="600"><path d="M469.333333 426.666667V128a42.666667 42.666667 0 0 1 42.666667-42.666667c235.648 0 426.666667 191.018667 426.666667 426.666667s-191.018667 426.666667-426.666667 426.666667S85.333333 747.648 85.333333 512a426.538667 426.538667 0 0 1 223.658667-375.381333 42.666667 42.666667 0 0 1 40.661333 75.050666A341.333333 341.333333 0 1 0 554.666667 173.312V512a42.666667 42.666667 0 0 1-68.266667 34.133333l-170.666667-128a42.666667 42.666667 0 1 1 51.2-68.266666L469.333333 426.666667z" p-id="2404" fill="#707070"></path></svg>